<?xml version="1.0" encoding="utf-8" standalone="no"?><!DOCTYPE svg PUBLIC "-//W3C//DTD SVG 20010904//EN" "http://www.w3.org/TR/2001/REC-SVG-20010904/DTD/svg10.dtd"><svg xmlns="http://www.w3.org/2000/svg" width="413" height="311" xmlns:xlink="http://www.w3.org/1999/xlink"><source><![CDATA[Andrew->China: Says Hello
Note right of China: China thinks\nabout it
China-->Andrew: How are you?
Andrew->>China: I am good thanks!]]></source><desc></desc><defs><marker viewBox="0 0 5 5" markerWidth="5" markerHeight="5" orient="auto" refX="5" refY="2.5" id="markerArrowBlock"><path d="M 0 0 L 5 2.5 L 0 5 z"></path></marker><marker viewBox="0 0 9.6 16" markerWidth="4" markerHeight="16" orient="auto" refX="9.6" refY="8" id="markerArrowOpen"><path d="M 9.6,8 1.92,16 0,13.7 5.76,8 0,2.286 1.92,0 9.6,8 z"></path></marker></defs><g class="title"></g><g class="actor"><rect x="10" y="20" width="72" height="36" stroke="#000000" fill="#ffffff" style="stroke-width: 2;"></rect><text x="22" y="44" style="font-size: 16px; font-family: &quot;Andale Mono&quot;, monospace;"><tspan x="20">Andrew</tspan></text></g><g class="actor"><rect x="10" y="255.1875" width="72" height="36" stroke="#000000" fill="#ffffff" style="stroke-width: 2;"></rect><text x="22" y="279.1875" style="font-size: 16px; font-family: &quot;Andale Mono&quot;, monospace;"><tspan x="20">Andrew</tspan></text></g><line x1="46" x2="46" y1="56" y2="255.1875" stroke="#000000" fill="none" style="stroke-width: 2;"></line><g class="actor"><rect x="171.5" y="20" width="63" height="36" stroke="#000000" fill="#ffffff" style="stroke-width: 2;"></rect><text x="183.5" y="44" style="font-size: 16px; font-family: &quot;Andale Mono&quot;, monospace;"><tspan x="181.5">China</tspan></text></g><g class="actor"><rect x="171.5" y="255.1875" width="63" height="36" stroke="#000000" fill="#ffffff" style="stroke-width: 2;"></rect><text x="183.5" y="279.1875" style="font-size: 16px; font-family: &quot;Andale Mono&quot;, monospace;"><tspan x="181.5">China</tspan></text></g><line x1="203" x2="203" y1="56" y2="255.1875" stroke="#000000" fill="none" style="stroke-width: 2;"></line><g class="signal"><text x="84.5" y="86" style="font-size: 16px; font-family: &quot;Andale Mono&quot;, monospace;"><tspan x="83.5">Says Hello</tspan></text><line x1="46" x2="203" y1="94" y2="94" stroke="#000000" fill="none" style="stroke-width: 2; marker-end: url(&quot;#markerArrowBlock&quot;);"></line></g><g class="note"><rect x="223" y="114" width="109" height="45.1875" stroke="#000000" fill="#ffffff" style="stroke-width: 2;"></rect><text x="230" y="133" style="font-size: 16px; font-family: &quot;Andale Mono&quot;, monospace;"><tspan x="228">China thinks</tspan><tspan dy="1.2em" x="228">about it</tspan></text></g><g class="signal"><text x="77" y="189.1875" style="font-size: 16px; font-family: &quot;Andale Mono&quot;, monospace;"><tspan x="75">How are you?</tspan></text><line x1="203" x2="46" y1="197.1875" y2="197.1875" stroke="#000000" fill="none" style="stroke-width: 2; stroke-dasharray: 6, 2; marker-end: url(&quot;#markerArrowBlock&quot;);"></line></g><g class="signal"><text x="57" y="227.1875" style="font-size: 16px; font-family: &quot;Andale Mono&quot;, monospace;"><tspan x="56">I am good thanks!</tspan></text><line x1="46" x2="203" y1="235.1875" y2="235.1875" stroke="#000000" fill="none" style="stroke-width: 2; marker-end: url(&quot;#markerArrowOpen&quot;);"></line></g></svg>